<svg width="18" height="21" viewBox="0 0 18 21" fill="none" xmlns="http://www.w3.org/2000/svg">
<path d="M6.875 0C7.04076 0 7.19973 0.0658481 7.31694 0.183058C7.43415 0.300269 7.5 0.45924 7.5 0.625V3.125C7.5 3.29076 7.43415 3.44973 7.31694 3.56694C7.19973 3.68415 7.04076 3.75 6.875 3.75C6.70924 3.75 6.55027 3.68415 6.43306 3.56694C6.31585 3.44973 6.25 3.29076 6.25 3.125V0.625C6.25 0.45924 6.31585 0.300269 6.43306 0.183058C6.55027 0.0658481 6.70924 0 6.875 0ZM2.0125 2.0125C2.07056 1.9543 2.13953 1.90812 2.21546 1.87661C2.29139 1.8451 2.37279 1.82888 2.455 1.82888C2.53721 1.82888 2.61861 1.8451 2.69454 1.87661C2.77047 1.90812 2.83944 1.9543 2.8975 2.0125L4.665 3.78125C4.72469 3.8389 4.77231 3.90787 4.80506 3.98412C4.83782 4.06037 4.85506 4.14239 4.85578 4.22537C4.8565 4.30836 4.84069 4.39066 4.80926 4.46747C4.77784 4.54428 4.73143 4.61406 4.67275 4.67275C4.61406 4.73143 4.54428 4.77784 4.46747 4.80926C4.39066 4.84069 4.30836 4.8565 4.22537 4.85578C4.14239 4.85506 4.06037 4.83782 3.98412 4.80506C3.90787 4.77231 3.8389 4.72469 3.78125 4.665L2.01375 2.8975C1.89658 2.78029 1.83076 2.62135 1.83076 2.45563C1.83076 2.2899 1.89658 2.13095 2.01375 2.01375L2.0125 2.0125ZM11.7375 2.0125C11.7957 2.07056 11.8419 2.13953 11.8734 2.21546C11.9049 2.29139 11.9211 2.37279 11.9211 2.455C11.9211 2.53721 11.9049 2.61861 11.8734 2.69454C11.8419 2.77047 11.7957 2.83944 11.7375 2.8975L9.9675 4.665C9.90985 4.72469 9.84088 4.77231 9.76463 4.80506C9.68837 4.83782 9.60636 4.85506 9.52338 4.85578C9.44039 4.8565 9.35809 4.84069 9.28128 4.80926C9.20447 4.77784 9.13469 4.73143 9.076 4.67275C9.01732 4.61406 8.97091 4.54428 8.93949 4.46747C8.90806 4.39066 8.89225 4.30836 8.89297 4.22537C8.89369 4.14239 8.91093 4.06037 8.94369 3.98412C8.97644 3.90787 9.02406 3.8389 9.08375 3.78125L10.8512 2.01375C10.9685 1.89658 11.1274 1.83076 11.2931 1.83076C11.4589 1.83076 11.6178 1.89658 11.735 2.01375L11.7375 2.0125ZM0 6.875C0 6.70924 0.0658481 6.55027 0.183058 6.43306C0.300269 6.31585 0.45924 6.25 0.625 6.25H3.125C3.29076 6.25 3.44973 6.31585 3.56694 6.43306C3.68415 6.55027 3.75 6.70924 3.75 6.875C3.75 7.04076 3.68415 7.19973 3.56694 7.31694C3.44973 7.43415 3.29076 7.5 3.125 7.5H0.625C0.45924 7.5 0.300269 7.43415 0.183058 7.31694C0.0658481 7.19973 0 7.04076 0 6.875ZM8.3 6.625C8.11758 6.47306 7.89566 6.3762 7.66021 6.34578C7.42475 6.31535 7.1855 6.3526 6.97045 6.45318C6.75539 6.55376 6.57343 6.7135 6.44584 6.91371C6.31826 7.11393 6.25033 7.34634 6.25 7.58375V18.96C6.25 20.115 7.68125 20.6525 8.44125 19.7837L10.9738 16.8888C11.1499 16.6879 11.3669 16.527 11.6103 16.4168C11.8537 16.3067 12.1178 16.2498 12.385 16.25H16.3988C17.5675 16.25 18.0975 14.7875 17.1987 14.04L8.3 6.62375V6.625ZM7.5 18.9625V7.58375L16.3988 15H12.385C11.9394 14.9999 11.499 15.0952 11.0933 15.2793C10.6875 15.4634 10.3259 15.7321 10.0325 16.0675L7.5 18.9625Z" fill="white"/>
</svg>
